<svg xmlns="http://www.w3.org/2000/svg" viewBox="0 0 64 64" role="img" aria-labelledby="t">
  <title id="t">Wrenhollow mark: a wren perched on a copper pot still</title>
  <g fill="none" stroke="#B8733A" stroke-width="2" stroke-linecap="round" stroke-linejoin="round">
    <circle cx="32" cy="32" r="29"/>
    <circle cx="32" cy="32" r="25.5" stroke-width="1" opacity=".55"/>
    <!-- pot still -->
    <path d="M21 50h22"/>
    <path d="M24 50c-4-3-5-8-3-12 2-4 6-6 11-6s9 2 11 6c2 4 1 9-3 12"/>
    <path d="M29 32v-5h6v5"/>
    <!-- swan neck / lyne arm -->
    <path d="M32 27c0-6 5-9 11-8l6 1"/>
    <path d="M49 20v8"/>
    <!-- rivets -->
    <path d="M26 42h12" stroke-width="1" opacity=".7"/>
  </g>
  <!-- wren perched on the lyne arm -->
  <g fill="#B8733A">
    <path d="M38.5 19.6c-.6-2.8 1.2-5.2 3.9-5.4 1.4-.1 2.5.5 3.1 1.4l2.3-.2-1.9 1.3c.2 2.2-1.2 3.9-3.3 4.4l-4.1-1.5z"/>
    <path d="M38.8 18.8l-4.6-5.3 1.2 5.9z"/>
    <circle cx="44.1" cy="15.6" r=".55" fill="#15180F"/>
  </g>
  <!-- barley -->
  <g fill="none" stroke="#B8733A" stroke-width="1.4" stroke-linecap="round">
    <path d="M14 46c2-6 3-12 2-19"/>
    <path d="M16 30l-3-2M15.6 34l-3-2M15 38l-3-2M16 30l2.4-2.6M15.6 34l2.5-2.4"/>
  </g>
</svg>
